<svg xmlns="http://www.w3.org/2000/svg" width="24" height="24" viewBox="0 0 24 24">
  <path fill="currentColor" d="M12 8.6a3.4 3.4 0 1 0 0 6.8 3.4 3.4 0 0 0 0-6.8Zm9 3.4-.01.62a7.8 7.8 0 0 1-.09.93l-2.01.7a7.7 7.7 0 0 1-.86 1.48l.93 1.92a9.1 9.1 0 0 1-1.34 1.34l-1.92-.93a7.7 7.7 0 0 1-1.48.86l-.7 2.01a7.8 7.8 0 0 1-.93.09l-.62.01-.62-.01a7.8 7.8 0 0 1-.93-.09l-.7-2.01a7.7 7.7 0 0 1-1.48-.86l-1.92.93a9.1 9.1 0 0 1-1.34-1.34l.93-1.92a7.7 7.7 0 0 1-.86-1.48l-2.01-.7a7.8 7.8 0 0 1-.09-.93L3 12l.01-.62a7.8 7.8 0 0 1 .09-.93l2.01-.7c.24-.52.53-1.02.86-1.48l-.93-1.92A9.1 9.1 0 0 1 6.38 4.7l1.92.93c.46-.33.96-.62 1.48-.86l.7-2.01A7.8 7.8 0 0 1 11.41 2l.62-.01.62.01c.32.01.63.04.93.09l.7 2.01c.52.24 1.02.53 1.48.86l1.92-.93a9.1 9.1 0 0 1 1.34 1.34l-.93 1.92c.33.46.62.96.86 1.48l2.01.7c.05.3.08.61.09.93l.01.62Z"></path>
</svg>
